<svg width="115" height="28" viewBox="0 0 115 28" fill="none" xmlns="http://www.w3.org/2000/svg">
	<defs>
		<linearGradient id="paint0_linear_3874:3323" x1="9.69004" y1="22.4323" x2="9.77304" y2="18.5106" gradientUnits="userSpaceOnUse">
			<stop stop-color="#121B54" />
			<stop offset="0.4038" stop-color="#101B50" />
			<stop offset="0.7642" stop-color="#0A1C46" />
			<stop offset="1" stop-color="#041D3A" />
		</linearGradient>
		<linearGradient id="paint1_linear_3874:3323" x1="9.77594" y1="12.3557" x2="9.64395" y2="18.5909" gradientUnits="userSpaceOnUse">
			<stop stop-color="#121B54" />
			<stop offset="0.4038" stop-color="#101B50" />
			<stop offset="0.7642" stop-color="#0A1C46" />
			<stop offset="1" stop-color="#041D3A" />
		</linearGradient>
	</defs>
	<path d="M22.5322 17.0944H14.1878H14.1202C14.0376 17.1019 13.9549 17.1019 13.8723 17.0944H10.9131V14.1727V14.0976C10.9131 14.0901 10.9131 14.0826 10.9131 14.0826C10.9131 14.0601 10.9131 14.0376 10.9131 14.015C10.9131 13.985 10.9131 13.9549 10.9131 13.9324V13.9099V5.45279C10.9131 2.44099 8.46459 0 5.4603 0C2.4485 0 0 2.4485 0 5.45279V14C0 17.0043 2.4485 19.4528 5.4603 19.4528C5.5279 19.4528 5.59549 19.4528 5.6706 19.4603H8.54721V22.7049V22.75C8.65987 25.6942 11.0558 28 14 28H22.5397C25.544 28 27.9925 25.5515 27.9925 22.5472C27.9925 19.5354 25.544 17.0944 22.5322 17.0944ZM5.76824 17.0944C5.65558 17.0869 5.55043 17.0869 5.44528 17.0869C3.74785 17.0869 2.36588 15.7049 2.36588 14V5.45279C2.36588 3.75536 3.74785 2.36588 5.45279 2.36588C7.15021 2.36588 8.5397 3.74785 8.5397 5.45279V13.8047C8.5397 13.8197 8.5397 13.8423 8.5397 13.8573C8.5397 13.9099 8.5397 13.9549 8.5397 14.0075C8.5397 14.0601 8.5397 14.1127 8.5397 14.1652V14.2028V17.0869H5.76824V17.0944ZM22.5322 25.6266H13.9925C12.3326 25.6266 10.9807 24.3348 10.9131 22.6824V19.4678H13.7672C13.9174 19.4753 14.0601 19.4753 14.2103 19.4678H22.5322C24.2296 19.4678 25.6116 20.8498 25.6116 22.5472C25.6191 24.2446 24.2371 25.6266 22.5322 25.6266Z" fill="#121B54" />
	<path opacity="0.76" d="M10.9057 19.4668V22.2683H8.53979V19.4668H10.9057Z" fill="url(#paint0_linear_3874:3323)" />
	<path opacity="0.76" d="M8.53979 17.0949V12.6035H10.9057V17.0949H8.53979Z" fill="url(#paint1_linear_3874:3323)" />
	<path d="M35 5.25H37.5671V16.4032H43.75V18.8502H35V5.25V5.25Z" fill="#121B54" />
	<path d="M63.4893 16.5239V18.8507H55.0889V14.7651L61.1516 11.8157V11.4661H55.209V9.21582H63.249V13.1812L57.1862 16.1743V16.5239H63.4893V16.5239Z" fill="#121B54" />
	<path d="M66.7884 14.8303C66.7993 15.1144 66.8648 15.3765 66.9959 15.6168C67.1161 15.8572 67.2909 16.0647 67.4984 16.2395C67.7169 16.4143 67.9572 16.5454 68.2412 16.6437C68.5143 16.742 68.8093 16.7857 69.1261 16.7857C69.7378 16.7857 70.1966 16.6765 70.5243 16.4689C70.852 16.2504 71.0814 15.9992 71.2234 15.7042L73.3208 16.8731C73.2007 17.1243 73.0368 17.3756 72.8402 17.6378C72.6326 17.8999 72.3595 18.1512 72.0318 18.3697C71.7041 18.5881 71.2999 18.7738 70.8302 18.9159C70.3605 19.0579 69.8033 19.1343 69.1698 19.1343C68.4488 19.1343 67.7824 19.0142 67.1925 18.7848C66.5917 18.5554 66.0783 18.2167 65.6523 17.7688C65.2153 17.3319 64.8767 16.7857 64.6364 16.1521C64.396 15.5185 64.2759 14.7976 64.2759 14.0001V13.88C64.2759 13.1371 64.407 12.4708 64.6582 11.8591C64.9095 11.2473 65.259 10.7339 65.696 10.3079C66.1329 9.88183 66.6464 9.54319 67.2362 9.30287C67.8261 9.06254 68.4597 8.94238 69.1261 8.94238C69.9563 8.94238 70.6663 9.08439 71.2671 9.37934C71.868 9.67428 72.3595 10.0348 72.7419 10.4826C73.1351 10.9305 73.4191 11.4221 73.5939 11.9574C73.7796 12.4926 73.867 13.017 73.867 13.5195V14.8194H66.7884V14.8303ZM69.1042 11.1599C68.4816 11.1599 67.9791 11.3238 67.5858 11.6406C67.1925 11.9574 66.9413 12.3288 66.8321 12.7439H71.3764C71.2999 12.2851 71.0596 11.9137 70.6445 11.6187C70.2403 11.3129 69.7269 11.1599 69.1042 11.1599Z" fill="#121B54" />
	<path d="M86.3529 22.7501H83.906V9.21548H86.3529V10.6137H86.7025C86.9647 10.0785 87.3361 9.67428 87.8277 9.37934C88.3192 9.08439 88.9528 8.94238 89.7175 8.94238C90.2855 8.94238 90.8317 9.05162 91.3451 9.2701C91.8586 9.48858 92.3064 9.81629 92.6888 10.2314C93.0711 10.6574 93.377 11.1708 93.6064 11.7717C93.8358 12.3834 93.945 13.0716 93.945 13.8472V14.1967C93.945 14.9833 93.8358 15.6824 93.6173 16.2941C93.3988 16.9059 93.1039 17.4193 92.7215 17.8344C92.3501 18.2604 91.9023 18.5772 91.3888 18.7848C90.8754 19.0032 90.3183 19.1016 89.7284 19.1016C89.2915 19.1016 88.9091 19.0579 88.5814 18.9705C88.2537 18.8831 87.9806 18.752 87.7403 18.5991C87.4999 18.4461 87.3033 18.2604 87.1395 18.0638C86.9756 17.8672 86.8336 17.6487 86.7244 17.4302H86.3748V22.7501H86.3529ZM88.92 16.7966C89.6847 16.7966 90.3074 16.5563 90.7771 16.0866C91.2468 15.6168 91.4872 14.9723 91.4872 14.1531V13.9237C91.4872 13.1044 91.2468 12.4599 90.7771 11.9901C90.3074 11.5204 89.6847 11.2801 88.92 11.2801C88.1554 11.2801 87.5327 11.5204 87.063 12.012C86.5933 12.4926 86.3529 13.1371 86.3529 13.9237V14.1531C86.3529 14.9396 86.5933 15.5841 87.063 16.0647C87.5436 16.5563 88.1554 16.7966 88.92 16.7966Z" fill="#121B54" />
	<path d="M111.707 9.21582H114.154V21.2211C114.154 21.6581 114.012 22.0295 113.739 22.3135C113.455 22.5975 113.105 22.7395 112.658 22.7395H106.923V20.4128H111.183C111.532 20.4128 111.707 20.2161 111.707 19.8338V17.4633H111.358C110.932 18.5776 110.014 19.1347 108.594 19.1347C108.113 19.1347 107.665 19.0582 107.25 18.9053C106.835 18.7523 106.475 18.512 106.158 18.1843C105.852 17.8566 105.601 17.4524 105.426 16.9718C105.251 16.4911 105.164 15.9121 105.164 15.2567V9.23767H107.611V14.7542C107.611 15.4424 107.775 15.9777 108.091 16.36C108.419 16.7423 108.9 16.9281 109.544 16.9281C110.287 16.9281 110.822 16.6877 111.172 16.218C111.511 15.7483 111.685 15.1038 111.685 14.2845V9.21582H111.707Z" fill="#121B54" />
	<path d="M51.2657 9.21548V10.3843H50.9162C50.6649 9.89276 50.3372 9.53227 49.9112 9.29194C49.4851 9.06254 48.9389 8.94238 48.2507 8.94238C47.6827 8.94238 47.1474 9.05162 46.6449 9.28102C46.1424 9.51042 45.7055 9.83814 45.3341 10.2642C44.9627 10.6902 44.6568 11.2145 44.4383 11.8154C44.2198 12.4271 44.1106 13.1153 44.1106 13.88V14.1858C44.1106 14.9614 44.2198 15.6605 44.4492 16.2614C44.6786 16.8731 44.9845 17.3865 45.3668 17.8125C45.7601 18.2386 46.208 18.5663 46.7214 18.7848C47.2348 19.0032 47.781 19.1125 48.36 19.1125C48.9826 19.1125 49.5288 18.9814 49.9876 18.7301C50.4574 18.4789 50.8178 18.0419 51.08 17.4411H51.4187V18.8394H52.9261H53.7017V17.4302V15.9227V14.3825V9.20455H51.2657V9.21548ZM51.2657 14.1531C51.2657 14.9723 51.0472 15.6168 50.6212 16.0866C50.1952 16.5563 49.6271 16.7966 48.9062 16.7966C48.1961 16.7966 47.6281 16.5563 47.1911 16.0866C46.7651 15.6168 46.5466 14.9723 46.5466 14.1531V13.9237C46.5466 13.1044 46.7651 12.4599 47.1911 11.9901C47.6171 11.5204 48.1852 11.2801 48.9062 11.2801C49.6162 11.2801 50.1843 11.5204 50.6212 11.9901C51.0472 12.4599 51.2657 13.1044 51.2657 13.9237V14.1531Z" fill="#121B54" />
	<path d="M101.81 9.21548V10.3843H101.461C101.209 9.89276 100.882 9.53227 100.456 9.29194C100.03 9.06254 99.4834 8.94238 98.7952 8.94238C98.2271 8.94238 97.6919 9.05162 97.1894 9.28102C96.6869 9.51042 96.2499 9.83814 95.8785 10.2642C95.5071 10.6902 95.2012 11.2145 94.9827 11.8154C94.7643 12.4271 94.655 13.1153 94.655 13.88V14.1858C94.655 14.9614 94.7643 15.6605 94.9937 16.2614C95.2231 16.8731 95.5289 17.3865 95.9113 17.8125C96.3045 18.2386 96.7524 18.5663 97.2658 18.7848C97.7793 19.0032 98.3254 19.1125 98.9044 19.1125C99.5271 19.1125 100.073 18.9814 100.532 18.7301C101.002 18.4789 101.362 18.0419 101.624 17.4411H101.963V18.8394H103.471H104.246V17.4302V15.9227V14.3825V9.20455H101.81V9.21548ZM101.81 14.1531C101.81 14.9723 101.592 15.6168 101.166 16.0866C100.74 16.5563 100.172 16.7966 99.4506 16.7966C98.7406 16.7966 98.1725 16.5563 97.7356 16.0866C97.3095 15.6168 97.091 14.9723 97.091 14.1531V13.9237C97.091 13.1044 97.3095 12.4599 97.7356 11.9901C98.1616 11.5204 98.7296 11.2801 99.4506 11.2801C100.161 11.2801 100.729 11.5204 101.166 11.9901C101.592 12.4599 101.81 13.1044 101.81 13.9237V14.1531Z" fill="#121B54" />
	<path d="M82.3766 9.84906C81.7977 9.24825 81.0221 8.94238 80.0608 8.94238C79.449 8.94238 78.9356 9.08439 78.4987 9.37934C78.0617 9.67428 77.7558 10.0785 77.5701 10.6137H77.2206V9.21548H74.8938V11.5423V16.5126V18.8394H77.3407V14.7648H77.3517V13.3993C77.3517 12.7002 77.5046 12.1649 77.8214 11.7826C78.1273 11.4112 78.5642 11.2145 79.0995 11.2145C79.6457 11.2145 80.0498 11.3784 80.3229 11.6952C80.596 12.012 80.7271 12.438 80.7271 12.9733V13.2464L83.2505 13.017V12.5909C83.2505 11.3675 82.9556 10.4499 82.3766 9.84906Z" fill="#121B54" />
</svg>
